<svg width="32" height="32" viewBox="0 0 32 32" fill="none" xmlns="http://www.w3.org/2000/svg">
<path d="M9.59995 8.16031V9.16031C9.95562 9.16031 10.2845 8.9714 10.4637 8.66418L9.59995 8.16031ZM11.84 4.32031V3.32031C11.4843 3.32031 11.1554 3.50922 10.9762 3.81644L11.84 4.32031ZM20.16 4.32031L21.0237 3.81644C20.8445 3.50922 20.5156 3.32031 20.16 3.32031V4.32031ZM22.3999 8.16031L21.5362 8.66418C21.7154 8.9714 22.0443 9.16031 22.3999 9.16031V8.16031ZM4.19995 24.4803V11.3603H2.19995V24.4803H4.19995ZM6.39995 9.16031H9.59995V7.16031H6.39995V9.16031ZM10.4637 8.66418L12.7037 4.82418L10.9762 3.81644L8.73617 7.65644L10.4637 8.66418ZM11.84 5.32031H20.16V3.32031H11.84V5.32031ZM19.2962 4.82418L21.5362 8.66418L23.2637 7.65644L21.0237 3.81644L19.2962 4.82418ZM22.3999 9.16031H25.5999V7.16031H22.3999V9.16031ZM27.7999 11.3603V24.4803H29.7999V11.3603H27.7999ZM27.7999 24.4803C27.7999 25.6953 26.815 26.6803 25.5999 26.6803V28.6803C27.9195 28.6803 29.7999 26.7999 29.7999 24.4803H27.7999ZM25.5999 9.16031C26.815 9.16031 27.7999 10.1453 27.7999 11.3603H29.7999C29.7999 9.04072 27.9195 7.16031 25.5999 7.16031V9.16031ZM4.19995 11.3603C4.19995 10.1453 5.18492 9.16031 6.39995 9.16031V7.16031C4.08036 7.16031 2.19995 9.04071 2.19995 11.3603H4.19995ZM6.39995 26.6803C5.18492 26.6803 4.19995 25.6953 4.19995 24.4803H2.19995C2.19995 26.7999 4.08036 28.6803 6.39995 28.6803V26.6803ZM19.7999 17.1203C19.7999 19.219 18.0986 20.9203 15.9999 20.9203V22.9203C19.2032 22.9203 21.7999 20.3236 21.7999 17.1203H19.7999ZM15.9999 20.9203C13.9013 20.9203 12.2 19.219 12.2 17.1203H10.2C10.2 20.3236 12.7967 22.9203 15.9999 22.9203V20.9203ZM12.2 17.1203C12.2 15.0216 13.9013 13.3203 15.9999 13.3203V11.3203C12.7967 11.3203 10.2 13.9171 10.2 17.1203H12.2ZM15.9999 13.3203C18.0986 13.3203 19.7999 15.0216 19.7999 17.1203H21.7999C21.7999 13.9171 19.2032 11.3203 15.9999 11.3203V13.3203ZM25.5999 26.6803H6.39995V28.6803H25.5999V26.6803Z" fill="#589BFF"/>
</svg>
