<svg width="20" height="20" viewBox="0 0 20 20" fill="none" xmlns="http://www.w3.org/2000/svg">
<path d="M14.9984 5.967C14.9484 5.95866 14.8901 5.95866 14.8401 5.967C13.6901 5.92533 12.7734 4.98366 12.7734 3.81699C12.7734 2.62533 13.7318 1.66699 14.9234 1.66699C16.1151 1.66699 17.0734 2.63366 17.0734 3.81699C17.0651 4.98366 16.1484 5.92533 14.9984 5.967Z" stroke="#DCDEE3" stroke-width="1.5" stroke-linecap="round" stroke-linejoin="round"/>
<path d="M14.1397 12.0338C15.2814 12.2255 16.5398 12.0255 17.4231 11.4338C18.5981 10.6505 18.5981 9.36713 17.4231 8.58379C16.5314 7.99213 15.2564 7.79212 14.1147 7.99212" stroke="#DCDEE3" stroke-width="1.5" stroke-linecap="round" stroke-linejoin="round"/>
<path d="M4.97539 5.967C5.02539 5.95866 5.08372 5.95866 5.13372 5.967C6.28372 5.92533 7.20039 4.98366 7.20039 3.81699C7.20039 2.62533 6.24206 1.66699 5.05039 1.66699C3.85873 1.66699 2.90039 2.63366 2.90039 3.81699C2.90872 4.98366 3.82539 5.92533 4.97539 5.967Z" stroke="#DCDEE3" stroke-width="1.5" stroke-linecap="round" stroke-linejoin="round"/>
<path d="M5.8345 12.0338C4.69284 12.2255 3.43451 12.0255 2.55117 11.4338C1.37617 10.6505 1.37617 9.36713 2.55117 8.58379C3.44284 7.99213 4.71784 7.79212 5.8595 7.99212" stroke="#DCDEE3" stroke-width="1.5" stroke-linecap="round" stroke-linejoin="round"/>
<path d="M9.99844 12.1916C9.94844 12.1833 9.8901 12.1833 9.8401 12.1916C8.6901 12.1499 7.77344 11.2083 7.77344 10.0416C7.77344 8.84994 8.73177 7.8916 9.92344 7.8916C11.1151 7.8916 12.0734 8.85827 12.0734 10.0416C12.0651 11.2083 11.1484 12.1583 9.99844 12.1916Z" stroke="#DCDEE3" stroke-width="1.5" stroke-linecap="round" stroke-linejoin="round"/>
<path d="M7.57412 14.8168C6.39912 15.6001 6.39912 16.8835 7.57412 17.6668C8.90745 18.5585 11.0908 18.5585 12.4241 17.6668C13.5991 16.8835 13.5991 15.6001 12.4241 14.8168C11.0991 13.9335 8.90745 13.9335 7.57412 14.8168Z" stroke="#DCDEE3" stroke-width="1.5" stroke-linecap="round" stroke-linejoin="round"/>
</svg>
