<svg width="20" height="20" viewBox="0 0 20 20" fill="none" xmlns="http://www.w3.org/2000/svg">
<path d="M9.99365 5.625C11.2018 5.625 12.1812 4.64562 12.1812 3.4375C12.1812 2.22938 11.2018 1.25 9.99365 1.25C8.78553 1.25 7.80615 2.22938 7.80615 3.4375C7.80615 4.64562 8.78553 5.625 9.99365 5.625Z" stroke="#DCDEE3" stroke-width="1.5" stroke-linecap="round" stroke-linejoin="round"/>
<path d="M12.0222 10.5234L14.741 12.6328C14.9207 12.7824 15.1499 12.8595 15.3835 12.8488C15.6171 12.8381 15.8383 12.7405 16.0036 12.5752C16.169 12.4098 16.2666 12.1886 16.2773 11.955C16.2879 11.7214 16.2109 11.4922 16.0613 11.3125L12.9675 7.33594C12.8234 7.1903 12.6518 7.0746 12.4628 6.99549C12.2737 6.91639 12.0709 6.87544 11.866 6.875H8.11597C7.70004 6.87723 7.30163 7.04276 7.00659 7.33594L3.91284 11.3125C3.75176 11.4913 3.66561 11.7252 3.67223 11.9658C3.67885 12.2064 3.77774 12.4352 3.94842 12.6049C4.1191 12.7745 4.3485 12.8721 4.58911 12.8773C4.82972 12.8825 5.06311 12.7949 5.24097 12.6328L7.95972 10.5234L5.78784 17.3672C5.73552 17.479 5.70574 17.6001 5.70019 17.7234C5.69464 17.8467 5.71345 17.97 5.75552 18.086C5.7976 18.2021 5.86213 18.3088 5.94542 18.3999C6.02871 18.491 6.12914 18.5649 6.24097 18.6172C6.3528 18.6695 6.47384 18.6993 6.59718 18.7048C6.72052 18.7104 6.84374 18.6916 6.95981 18.6495C7.07589 18.6074 7.18254 18.5429 7.27367 18.4596C7.36481 18.3763 7.43865 18.2759 7.49097 18.1641L9.99097 14.2266L12.491 18.1641C12.5398 18.2808 12.6118 18.3864 12.7025 18.4746C12.7932 18.5627 12.9009 18.6316 13.0189 18.6771C13.137 18.7225 13.263 18.7436 13.3895 18.7391C13.5159 18.7345 13.6401 18.7045 13.7546 18.6506C13.8691 18.5968 13.9715 18.5204 14.0557 18.4259C14.1399 18.3315 14.2041 18.221 14.2444 18.101C14.2847 17.9811 14.3004 17.8543 14.2904 17.7282C14.2804 17.6021 14.245 17.4793 14.1863 17.3672L12.0222 10.5234Z" stroke="#DCDEE3" stroke-width="1.5" stroke-linecap="round" stroke-linejoin="round"/>
</svg>
