<svg width="15" height="16" viewBox="0 0 15 16" fill="none" xmlns="http://www.w3.org/2000/svg">
<path d="M1.1001 3.6002H13.9001M5.9001 11.6002V6.8002M9.1001 11.6002V6.8002M10.7001 14.8002H4.3001C3.41644 14.8002 2.7001 14.0839 2.7001 13.2002V4.4002C2.7001 3.95837 3.05827 3.6002 3.5001 3.6002H11.5001C11.9419 3.6002 12.3001 3.95837 12.3001 4.4002V13.2002C12.3001 14.0839 11.5838 14.8002 10.7001 14.8002ZM5.9001 3.6002H9.1001C9.54192 3.6002 9.9001 3.24202 9.9001 2.8002V2.0002C9.9001 1.55837 9.54192 1.2002 9.1001 1.2002H5.9001C5.45827 1.2002 5.1001 1.55837 5.1001 2.0002V2.8002C5.1001 3.24202 5.45827 3.6002 5.9001 3.6002Z" stroke="#1F2830" stroke-width="1.5" stroke-linecap="round" stroke-linejoin="round"/>
</svg>
