<svg width="16" height="16" viewBox="0 0 16 16" fill="none" xmlns="http://www.w3.org/2000/svg">
<path d="M1.6001 3.6002H14.4001M6.4001 11.6002V6.8002M9.6001 11.6002V6.8002M11.2001 14.8002H4.8001C3.91644 14.8002 3.2001 14.0839 3.2001 13.2002V4.4002C3.2001 3.95837 3.55827 3.6002 4.0001 3.6002H12.0001C12.4419 3.6002 12.8001 3.95837 12.8001 4.4002V13.2002C12.8001 14.0839 12.0838 14.8002 11.2001 14.8002ZM6.4001 3.6002H9.6001C10.0419 3.6002 10.4001 3.24202 10.4001 2.8002V2.0002C10.4001 1.55837 10.0419 1.2002 9.6001 1.2002H6.4001C5.95827 1.2002 5.6001 1.55837 5.6001 2.0002V2.8002C5.6001 3.24202 5.95827 3.6002 6.4001 3.6002Z" stroke="#F34565" stroke-width="1.5" stroke-linecap="round" stroke-linejoin="round"/>
</svg>
