<svg width="17" height="16" viewBox="0 0 17 16" fill="none" xmlns="http://www.w3.org/2000/svg">
<path d="M2.1001 3.6002H14.9001M6.9001 11.6002V6.8002M10.1001 11.6002V6.8002M11.7001 14.8002H5.3001C4.41644 14.8002 3.7001 14.0839 3.7001 13.2002V4.4002C3.7001 3.95837 4.05827 3.6002 4.5001 3.6002H12.5001C12.9419 3.6002 13.3001 3.95837 13.3001 4.4002V13.2002C13.3001 14.0839 12.5838 14.8002 11.7001 14.8002ZM6.9001 3.6002H10.1001C10.5419 3.6002 10.9001 3.24202 10.9001 2.8002V2.0002C10.9001 1.55837 10.5419 1.2002 10.1001 1.2002H6.9001C6.45827 1.2002 6.1001 1.55837 6.1001 2.0002V2.8002C6.1001 3.24202 6.45827 3.6002 6.9001 3.6002Z" stroke="#1F2830" stroke-width="1.5" stroke-linecap="round" stroke-linejoin="round"/>
</svg>
